<?xml version="1.0" encoding="utf-8"?>
<svg version="1.1" xmlns="http://www.w3.org/2000/svg" viewBox="0 0 200 230" width="200" height="230">
  <path id="cat-head" d="M164.28 81.46c9.48-9.6 11.25-3.3 15.95-8.27 4.7-4.97 4.8-21.54 4.8-21.54-1.4-1.45-9.83-5.34-9.83-5.34-2.2-9.2-10.95-15.18-20.24-16.6-4.68-.67-6.18-18.62-8.9-18.54-3.17.08-10.45 17.23-13.67 18.27-3.23 1.03-10.73 8.3-14.35 18.43-3.62 10.14 1.05 20.34 7.32 28.2 6.26 7.85 29.42 14.98 38.9 5.38z" style="transform: rotate(4.77435deg);transform-origin: 145px 63px;"></path>
  <path id="cat-body" d="M88.95 221.68c16 1.6 55.6 1.55 62.55.56 6.93-1 9-7.8 8.6-12.15 1.9 6.28 2.7 11.45 10.3 11.86 7.6.4 10.3 1.8 11.78-5.43 1.5-7.24-1.9-5.83-6.17-6.3 0 0-4.6-12.62-5.68-31.34-1.07-18.74 8.26-22.63 4.75-45.1-3.52-22.45-2.98-16.2-10.03-27.3-7.04-11.1-7-15.82.4-26.97 7.37-11.15-44.57-25.17-40.07-1.92 4.5 23.27-6.44 24.7-12.02 34.7-5.6 10-18.8 17.23-29.44 36.4-10.25 18.5-10.7 23.9-12.05 38.67-1.33 14.78 1.1 32.73 17.1 34.3z"></path>
  <path id="cat-tail" d="M21.53 111.4c6.22-6.22 18.9-18.73 36.26-3.32 17.33 15.4-8.56 62.24-4.4 79.54 4.17 17.3 17.3 33.08 36.32 33.68 19.03.6 6.7-6.9-16.7-22.38-23.42-15.47 20.7-78.3-6.45-100.17-30.1-20.76-48.8 2.6-55.13 7.78-6.33 5.2 3.86 11.1 10.1 4.88z"></path>
</svg>
