<svg xmlns="http://www.w3.org/2000/svg" xmlns:xlink="http://www.w3.org/1999/xlink">
<defs>
	<style><![CDATA[
		view { display: none; }
		view:target { display: inline; }
	]]></style>
</defs>
<symbol id="colon-icon" viewBox="0 0 100 125">
  <desc>Colon by Sumana Chamrunworakiat from the Noun Project</desc>
  <circle cx="49" cy="59.4" r="6.7"/>
  <circle cx="49" cy="36.2" r="6.7"/>
</symbol>
<symbol id="right-icon" viewBox="0 0 100 125">
  <desc>Arrow by TukTuk Design from the Noun Project</desc>
  <path d="M62.9,56.4L62.9,56.4c3.6,0,6.4-2.9,6.4-6.4v0c0-3.6-2.9-6.4-6.4-6.4h0c-3.6,0-6.4,2.9-6.4,6.4v0   C56.4,53.6,59.3,56.4,62.9,56.4z"/><path d="M50,43.6L50,43.6c3.6,0,6.4-2.9,6.4-6.4v0c0-3.6-2.9-6.4-6.4-6.4h0c-3.6,0-6.4,2.9-6.4,6.4v0C43.6,40.7,46.4,43.6,50,43.6z   "/><path d="M37.1,30.7L37.1,30.7c3.6,0,6.4-2.9,6.4-6.4v0c0-3.6-2.9-6.4-6.4-6.4h0c-3.6,0-6.4,2.9-6.4,6.4v0   C30.7,27.8,33.6,30.7,37.1,30.7z"/><path d="M50,69.3L50,69.3c3.6,0,6.4-2.9,6.4-6.4v0c0-3.6-2.9-6.4-6.4-6.4h0c-3.6,0-6.4,2.9-6.4,6.4v0C43.6,66.4,46.4,69.3,50,69.3z   "/><path d="M37.1,82.1L37.1,82.1c3.6,0,6.4-2.9,6.4-6.4v0c0-3.6-2.9-6.4-6.4-6.4h0c-3.6,0-6.4,2.9-6.4,6.4v0   C30.7,79.3,33.6,82.1,37.1,82.1z"/>
</symbol>
<symbol id="globe-icon" viewBox="0 0 512 640">
  <desc>Globe by Bluetip Design from the Noun Project</desc>
  <path d="M256,48c-0.1,0-0.1,0-0.2,0c0,0,0,0-0.1,0c-0.1,0-0.2,0-0.2,0C140.8,48.3,48,141.3,48,256c0,114.7,92.8,207.7,207.5,208  c0.1,0,0.2,0,0.2,0c0,0,0.1,0,0.1,0c0.1,0,0.1,0,0.2,0c114.9,0,208-93.1,208-208C464,141.1,370.9,48,256,48z M264.3,172.5  c22.1-0.6,43.5-3.5,64.2-8.5c6.2,24.5,10.1,52.8,10.7,83.8h-74.9V172.5z M264.3,155.8V66c22.4,6.2,45.2,36.1,59.6,82  C304.7,152.6,284.8,155.2,264.3,155.8z M247.7,65.8v90.1c-20.7-0.6-40.8-3.3-60.1-8C202.2,101.7,225.1,71.6,247.7,65.8z   M247.7,172.5v75.2h-75.4c0.6-31,4.5-59.3,10.7-83.8C203.8,168.9,225.5,171.9,247.7,172.5z M155.5,247.7H64.9  c1.8-42.8,17.8-82,43.3-113c18.5,10.2,38.2,18.6,58.8,24.8C160.2,186,156.2,215.9,155.5,247.7z M155.5,264.3  c0.6,31.7,4.6,61.7,11.4,88.2c-20.6,6.3-40.2,14.6-58.8,24.8c-25.5-31-41.4-70.2-43.3-113H155.5z M172.3,264.3h75.4v75.1  c-22.2,0.6-43.9,3.6-64.7,8.7C176.8,323.6,172.9,295.3,172.3,264.3z M247.7,356.1v90.2c-22.6-5.9-45.5-35.9-60.1-82.1  C206.9,359.4,227,356.7,247.7,356.1z M264.3,446v-90c20.5,0.6,40.4,3.3,59.7,7.9C309.5,409.9,286.8,439.8,264.3,446z M264.3,339.4  v-75.1h74.9c-0.6,30.9-4.5,59.2-10.7,83.7C307.8,343,286.4,340,264.3,339.4z M355.9,264.3h91.2c-1.8,42.8-17.8,81.9-43.3,113  c-18.7-10.3-38.5-18.7-59.3-25C351.3,325.8,355.3,296,355.9,264.3z M355.9,247.7c-0.6-31.7-4.6-61.6-11.3-88.1  c20.8-6.3,40.6-14.7,59.2-24.9c25.5,31,41.5,70.2,43.3,113.1H355.9z M392.4,121.9c-16.6,8.8-34,16.1-52.3,21.6  c-9.7-31.3-23.4-56.8-39.5-73.6C336,78.4,367.6,96.8,392.4,121.9z M210.8,70.1c-16.1,16.7-29.7,42.2-39.3,73.3  c-18.1-5.5-35.4-12.7-51.8-21.5C144.2,96.9,175.6,78.6,210.8,70.1z M119.6,390c16.4-8.8,33.8-16,51.8-21.5  c9.7,31.2,23.3,56.6,39.4,73.4C175.6,433.4,144.2,415.1,119.6,390z M300.6,442.1c16.2-16.8,29.8-42.3,39.6-73.7  c18.3,5.5,35.7,12.8,52.3,21.6C367.7,415.2,336,433.6,300.6,442.1z"/>
</symbol>
<symbol id="link-icon" viewBox="0 0 100 125">
  <desc>links by Adam Schraff from the Noun Project</desc>
  <path d=" M 69.85 22 Q 66.9 19.1 63.15 17.6 59.3 16 55.2 16 L 25.8 16 Q 21.65 16 17.8 17.6 14 19.1 11.1 22 8.2 24.9 6.6 28.65 5 32.35 5 36.4 L 5 39.8 Q 5 43.85 6.6 47.6 8.2 51.35 11.1 54.25 14 57.1 17.8 58.65 21.65 60.2 25.8 60.2 L 55.2 60.2 Q 59.3 60.2 63.15 58.65 66.9 57.1 69.85 54.25 72.8 51.35 74.35 47.6 75.95 43.85 75.95 39.8 L 75.95 36.4 Q 75.95 32.35 74.35 28.65 72.8 24.9 69.85 22 M 55.2 22.85 Q 57.9 22.85 60.5 23.85 63 24.9 64.95 26.8 66.9 28.75 67.95 31.25 69.05 33.75 69.05 36.4 L 69.05 39.8 Q 69.05 42.55 67.95 45 66.9 47.5 64.95 49.45 63 51.35 60.5 52.4 57.9 53.45 55.2 53.45 L 25.8 53.45 Q 23 53.45 20.5 52.4 17.95 51.35 16 49.45 14.05 47.5 13 45 11.9 42.55 11.9 39.8 L 11.9 36.4 Q 11.9 33.75 13 31.25 14.05 28.75 16 26.8 17.95 24.9 20.5 23.85 23 22.85 25.8 22.85 L 55.2 22.85 M 66.7 43.4 Q 67.3 41.65 67.3 39.8 L 44.8 39.8 Q 40.7 39.8 36.85 41.4 33.05 42.95 30.1 45.8 27.5 48.4 25.95 51.75 L 34 51.75 Q 34.5 51.2 35 50.6 37 48.7 39.5 47.65 42.05 46.65 44.8 46.65 L 65.1 46.65 Q 66.15 45.15 66.7 43.4 M 88.9 45.8 Q 86.6 43.55 83.7 42.1 80.85 40.65 77.7 40.1 77.65 43.55 76.5 46.85 78.65 47.15 80.55 48.15 82.45 49.1 84 50.6 85.95 52.55 87 55.05 88.05 57.55 88.05 60.2 L 88.05 63.6 Q 88.05 66.35 87 68.8 85.95 71.3 84 73.25 82 75.15 79.55 76.2 76.95 77.25 74.25 77.25 L 44.8 77.25 Q 42.05 77.25 39.5 76.2 37 75.15 35 73.25 33.1 71.3 32 68.8 30.95 66.35 30.95 63.6 L 30.95 61.9 25.8 61.9 Q 24.95 61.9 24.05 61.85 L 24.05 63.6 Q 24.05 67.65 25.6 71.4 27.2 75.15 30.1 78.05 33.05 80.95 36.85 82.5 40.7 84 44.8 84 L 74.25 84 Q 78.35 84 82.15 82.5 85.95 80.9 88.9 78.05 91.8 75.15 93.4 71.4 95 67.65 95 63.6 L 95 60.2 Q 95 56.15 93.4 52.45 91.8 48.7 88.9 45.8 Z"/>
</symbol>
<symbol id="angle-icon" viewBox="0 0 256 320">
  <desc>Arrow by Joaquín Sáenz from the Noun Project</desc>
  <path d="M147.291,102.352c3.512,0.002,6.369,2.857,6.369,6.369c-0.002,3.529-2.848,6.375-6.381,6.381   c-3.512,0-6.365-2.857-6.369-6.367C140.916,105.199,143.766,102.357,147.291,102.352L147.291,102.352z"/><path d="M147.279,121.631c3.527-0.008,6.381,2.85,6.375,6.375c0.002,3.512-2.855,6.367-6.371,6.371   c-3.516-0.004-6.369-2.861-6.375-6.375C140.908,124.482,143.764,121.625,147.279,121.631L147.279,121.631z"/><path d="M147.287,140.896c3.518,0.002,6.371,2.855,6.375,6.375c-0.008,3.516-2.863,6.373-6.375,6.373   c-3.52-0.002-6.373-2.857-6.375-6.375C140.908,143.754,143.764,140.898,147.287,140.896L147.287,140.896z"/><path d="M128.018,121.627c3.514-0.002,6.371,2.854,6.367,6.369c0.002,3.525-2.852,6.381-6.373,6.371   c-3.516,0.006-6.369-2.852-6.367-6.367C121.635,124.48,124.49,121.623,128.018,121.627L128.018,121.627z"/><path d="M128.012,140.898c3.52,0,6.375,2.855,6.375,6.375c-0.002,3.516-2.859,6.371-6.375,6.375c-3.52,0-6.375-2.857-6.375-6.375   C121.637,143.754,124.492,140.896,128.012,140.898L128.012,140.898z"/><path d="M108.74,140.902c3.518-0.004,6.373,2.854,6.369,6.369c0.008,3.521-2.848,6.377-6.369,6.367   c-3.516,0.004-6.371-2.852-6.367-6.367C102.363,143.75,105.219,140.895,108.74,140.902L108.74,140.902z"/>
</symbol>

<view id="colon" viewBox="0 0 32 32"/>
<view id="link" viewBox="0 32 32 32"/>
<view id="right" viewBox="0 64 32 32"/>
<view id="globe" viewBox="0 128 32 32"/>
<view id="angle" viewBox="0 160 32 32"/>

<use xlink:href="#colon-icon" width="32" height="32" x="0" y="0" fill="#eee" />
<use xlink:href="#link-icon" width="32" height="32" x="0" y="32" fill="#eee" />
<use xlink:href="#right-icon" width="32" height="32" x="0" y="64" fill="#eee" />
<use xlink:href="#globe-icon" width="32" height="32" x="0" y="128" fill="#eee" />
<use xlink:href="#angle-icon" width="32" height="32" x="0" y="160" fill="#eee" />

</svg>
