<svg xmlns="http://www.w3.org/2000/svg" viewBox="0 0 100 125"><defs>
	<style><![CDATA[
		.icon { display: none; }
		.icon:target { display: inline; }
	]]></style>
</defs><g id="colon" class="icon" fill="#eee"><circle cx="49" cy="59.4" r="6.7"/><circle cx="49" cy="36.2" r="6.7"/></g><g id="link" class="icon"  fill="#eee"><path d="M62.9,56.4L62.9,56.4c3.6,0,6.4-2.9,6.4-6.4v0c0-3.6-2.9-6.4-6.4-6.4h0c-3.6,0-6.4,2.9-6.4,6.4v0   C56.4,53.6,59.3,56.4,62.9,56.4z"/><path d="M50,43.6L50,43.6c3.6,0,6.4-2.9,6.4-6.4v0c0-3.6-2.9-6.4-6.4-6.4h0c-3.6,0-6.4,2.9-6.4,6.4v0C43.6,40.7,46.4,43.6,50,43.6z   "/><path d="M37.1,30.7L37.1,30.7c3.6,0,6.4-2.9,6.4-6.4v0c0-3.6-2.9-6.4-6.4-6.4h0c-3.6,0-6.4,2.9-6.4,6.4v0   C30.7,27.8,33.6,30.7,37.1,30.7z"/><path d="M50,69.3L50,69.3c3.6,0,6.4-2.9,6.4-6.4v0c0-3.6-2.9-6.4-6.4-6.4h0c-3.6,0-6.4,2.9-6.4,6.4v0C43.6,66.4,46.4,69.3,50,69.3z   "/><path d="M37.1,82.1L37.1,82.1c3.6,0,6.4-2.9,6.4-6.4v0c0-3.6-2.9-6.4-6.4-6.4h0c-3.6,0-6.4,2.9-6.4,6.4v0   C30.7,79.3,33.6,82.1,37.1,82.1z"/></g></svg>
